<?xml version="1.0" encoding="UTF-8"?>
<svg id="Layer_2" data-name="Layer 2" xmlns="http://www.w3.org/2000/svg" viewBox="0 0 363.59 363.59">
  <defs>
    <style>
      .cls-1 {
        fill: #000;
      }

      .cls-1, .cls-2 {
        stroke-width: 0px;
      }

      .cls-2 {
        fill: #ffc907;
      }
    </style>
  </defs>
  <g id="Main_Logo" data-name="Main Logo">
    <g>
      <rect class="cls-2" width="363.59" height="363.59" rx="45" ry="45"/>
      <g>
        <rect class="cls-1" x="256.81" y="231.28" width="46.21" height="7.71" rx="3.09" ry="3.09"/>
        <rect class="cls-1" x="60.57" y="231.28" width="46.11" height="7.71" rx="3.09" ry="3.09"/>
        <rect class="cls-1" x="229.9" y="162.35" width="40.27" height="7.71" rx="3.09" ry="3.09" transform="translate(-44.29 225.48) rotate(-45)"/>
        <rect class="cls-1" x="161.71" y="134.03" width="40.16" height="7.71" rx="3.09" ry="3.09" transform="translate(43.91 319.67) rotate(-90)"/>
        <rect class="cls-1" x="93.44" y="162.29" width="40.09" height="7.71" rx="3.09" ry="3.09" transform="translate(76.24 363.86) rotate(-135)"/>
        <path class="cls-1" d="M181.79,175.66c-32.79,0-59.47,26.68-59.47,59.47,0,1.3.06,2.58.14,3.85h8.07s102.53,0,102.53,0h0s8.07,0,8.07,0c.08-1.28.14-2.56.14-3.85,0-32.79-26.68-59.47-59.47-59.47ZM181.79,183.71c27.06,0,49.28,21.01,51.26,47.57h-102.53c1.98-26.56,24.21-47.57,51.26-47.57Z"/>
      </g>
    </g>
  </g>
</svg>